# xmcd CD database file
#
# Track frame offsets:
#	183
#	12083
#	27233
#	40058
#	52358
#	65883
#	80858
#	93458
#	106208
#	119108
#	129983
#	140883
#	153308
#	166358
#	182358
#	200333
#	218558
#	230558
#	244358
#	259358
#	277733
#	286483
#	297908
#	312608
#	324858
#
# Disc length: 4509 seconds
#
# Revision: 3
# Processed by: cddbd v1.5.2PL0 Copyright (c) Steve Scherf et al.
# Submitted via: CDex 1.70beta2
#
DISCID=80119b19
DTITLE=Django Reinhardt - The Django Reinhardt Story
DYEAR=1989
DGENRE=Gypsy Swing
TTITLE0=Melodie au Crepuscule
TTITLE1=Duke and Duke
TTITLE2=Just One of Those Things
TTITLE3=Babik (Be-Bop)
TTITLE4=Songe d'Automne
TTITLE5=Porto Carbello
TTITLE6=Del Salle
TTITLE7=It's Only A Paper Moon
TTITLE8=All the Things You Are
TTITLE9=Daphne
TTITLE10=Swing 42
TTITLE11=I Got Rythmn
TTITLE12=Swing Guitars
TTITLE13=I Saw Stars
TTITLE14=Honeysuckle Rose
TTITLE15=Sophisticated Lady
TTITLE16=Royal Garden Blues
TTITLE17=A Tisket A Tasket
TTITLE18=Django's Castle (Manoir De Mes Reves)
TTITLE19=St. Louis Blues
TTITLE20=I Can't Give You Antything But Love
TTITLE21=Vamp
TTITLE22=Dream of You
TTITLE23=Impromptu
TTITLE24=Double Whisky
EXTD=YEAR: 1989
EXTT0=Django Reinhardt
EXTT1=Django Reinhardt
EXTT2=Django Reinhardt
EXTT3=Django Reinhardt
EXTT4=Django Reinhardt
EXTT5=Django Reinhardt
EXTT6=Django Reinhardt
EXTT7=Django Reinhardt
EXTT8=Django Reinhardt
EXTT9=Django Reinhardt
EXTT10=Django Reinhardt
EXTT11=Django Reinhardt
EXTT12=Django Reinhardt
EXTT13=Django Reinhardt
EXTT14=Django Reinhardt
EXTT15=Django Reinhardt
EXTT16=Django Reinhardt
EXTT17=Django Reinhardt
EXTT18=Django Reinhardt
EXTT19=Django Reinhardt
EXTT20=Django Reinhardt
EXTT21=Django Reinhardt
EXTT22=Django Reinhardt
EXTT23=Django Reinhardt
EXTT24=Django Reinhardt
PLAYORDER=
